<svg aria-hidden="true" style="position:absolute;width:0;height:0" xmlns="http://www.w3.org/2000/svg" overflow="hidden"><defs><symbol id="facebook" viewBox="-2 0 6 6"><path d="M2.579.042v.879s-.648-.065-.81.184c-.089.136-.036.533-.044.819h.86c-.073.334-.125.56-.178.849h-.686v2.732H.53V2.784H.023v-.859h.501C.55 1.297.559.674.872.357 1.223.001 1.557.043 2.58.043z"/></symbol><symbol id="instagram" viewBox="0 0 6 6"><path d="M4.843 5.504H.747a.683.683 0 01-.683-.683V.725C.064.348.37.042.747.042h4.096c.377 0 .683.306.683.683v4.096a.683.683 0 01-.683.683zM2.795 1.715c-.426 0-.792.252-.96.614h-.001l-.005.012a.801.801 0 00-.027.068l-.012.033a.871.871 0 00-.02.073l-.009.034c-.006.026-.009.052-.013.079l-.005.032a1.058 1.058 0 102.104 0l-.005-.032c-.004-.026-.007-.053-.013-.079l-.009-.034a.871.871 0 00-.02-.073l-.012-.033c-.009-.023-.017-.046-.027-.068l-.005-.012h-.001a1.058 1.058 0 00-.96-.614zM4.911.93a.273.273 0 00-.273-.273h-.546a.273.273 0 00-.273.273v.546c0 .151.122.273.273.273h.546a.273.273 0 00.273-.273V.93zm0 1.399h-.503a1.672 1.672 0 11-3.226 0H.679v2.287c0 .151.122.273.273.273h3.686a.273.273 0 00.273-.273V2.329z"/></symbol><symbol id="printerest" viewBox="0 0 6 6"><path d="M1.931 3.596l-.136.546c-.046.18-.086.362-.153.527a2.702 2.702 0 01-.436.751c-.123.142-.097.086-.134.078-.028-.006-.03-.034-.036-.074-.03-.217-.01-.468.002-.712.013-.278.071-.509.126-.74l.306-1.315c.007-.029.026-.078.019-.095a1.403 1.403 0 01-.092-.363 1.126 1.126 0 01.03-.414c.059-.226.195-.426.404-.499a.467.467 0 01.37.028.4.4 0 01.185.266.951.951 0 01-.017.403c-.057.26-.132.455-.2.706-.034.124-.072.252-.04.387a.45.45 0 00.181.272.528.528 0 00.347.097c.262-.009.444-.177.566-.335.195-.253.313-.594.357-1a2.51 2.51 0 00.015-.43 1.172 1.172 0 00-.24-.665A1.124 1.124 0 002.819.65 1.786 1.786 0 002.02.6a1.42 1.42 0 00-1.049.754 1.505 1.505 0 00-.179.727c0 .224.055.398.145.533.028.043.07.078.098.127.039.07-.006.173-.025.248-.023.091-.026.216-.132.218-.044.001-.099-.031-.136-.052-.278-.154-.447-.434-.517-.797a1.91 1.91 0 010-.691A1.967 1.967 0 011.163.356c.238-.141.507-.24.834-.287.108-.016.221-.022.342-.028.356-.017.679.064.923.173.257.115.462.268.636.458.179.195.309.422.391.706.043.148.085.305.085.488s-.039.344-.066.505c-.101.603-.388 1.097-.819 1.378a1.42 1.42 0 01-.374.173 1.356 1.356 0 01-.478.06c-.169-.012-.307-.057-.423-.123s-.212-.145-.281-.265z"/></symbol><symbol id="twitter" viewBox="0 0 6 6"><path d="M3.736.128c.434-.008.665.15.886.351.187-.016.431-.121.574-.194l.139-.076a1.124 1.124 0 01-.364.526c-.038.029-.076.068-.123.087v.003c.243-.002.444-.112.634-.172v.003c-.1.159-.236.32-.38.436l-.175.139c.003.258-.004.503-.052.72-.28 1.258-1.021 2.111-2.195 2.477-.422.131-1.103.185-1.585.065a4.14 4.14 0 01-.659-.215 2.556 2.556 0 01-.415-.224c.109.003.236.033.358.013.11-.018.218-.013.32-.035.253-.056.478-.129.672-.243.094-.055.237-.119.304-.199a.951.951 0 01-.333-.06C.98 3.402.769 3.167.631 2.813c.11.012.426.041.5-.022-.138-.008-.271-.088-.366-.147a1.078 1.078 0 01-.528-.959l.115.054c.073.031.148.047.235.066.037.008.111.029.153.013H.734c-.056-.065-.148-.109-.205-.18C.342 1.406.167 1.048.277.622.305.514.35.418.397.33l.006.003c.022.046.07.079.101.117C.6.568.717.675.837.769c.409.32.778.517 1.369.662.15.037.324.065.503.066-.05-.147-.034-.384.005-.526.1-.357.316-.614.634-.752.076-.033.16-.057.249-.076l.137-.016z"/></symbol><symbol id="cart"><path d="M17.726 3.663h.001l-2.475 5.5a.826.826 0 01-.697.485l-7.128.475.412 1.176H15.6a1.65 1.65 0 11-1.65 1.651h-7.7a1.65 1.65 0 11-1.65-1.651h1.491L2.915 2.225h-1.89a.825.825 0 010-1.65H3.5c.36 0 .663.232.776.553l.003-.001.48 1.373h12.216a.825.825 0 01.751 1.163zM5.337 4.15l1.525 4.357 7.089-.473 1.748-3.884H5.337z"/></symbol><symbol id="glass"><path d="M17.317 14.983a1.65 1.65 0 01-2.334 2.333l-4.836-4.835A6.56 6.56 0 016.8 13.4a6.6 6.6 0 116.6-6.6 6.56 6.56 0 01-.919 3.347l4.836 4.836zM6.8 1.849a4.95 4.95 0 10.001 9.901 4.95 4.95 0 00-.001-9.9z"/></symbol></defs></svg>