<svg aria-hidden="true" style="position: absolute; width: 0; height: 0; overflow: hidden;" version="1.1" xmlns="http://www.w3.org/2000/svg" xmlns:xlink="http://www.w3.org/1999/xlink">
<defs>
<symbol id="facebook" viewBox=" -2 0 6 6">
<title>facebook</title>
<path d="M2.579 0.042c0 0.315 0 0.879 0 0.879s-0.648-0.065-0.81 0.184c-0.089 0.136-0.036 0.533-0.044 0.819 0.283 0 0.577 0 0.86 0-0.073 0.334-0.125 0.56-0.178 0.849-0.245 0-0.686 0-0.686 0v2.732c0 0-0.81 0-1.191 0 0-0.842-0-1.824 0-2.721-0.185 0-0.322 0-0.507 0 0-0.315 0-0.544 0-0.859 0.179 0 0.322 0 0.501 0 0.026-0.628 0.035-1.251 0.348-1.568 0.351-0.356 0.685-0.314 1.708-0.314z"></path>
</symbol>

<symbol id="instagram" viewBox="0 0 6 6">
<title>instagram</title>
<path d="M4.843 5.504h-4.096c-0.377 0-0.683-0.306-0.683-0.683v-4.096c0-0.377 0.306-0.683 0.683-0.683h4.096c0.377 0 0.683 0.306 0.683 0.683v4.096c0 0.377-0.306 0.683-0.683 0.683zM2.795 1.715c-0.426 0-0.792 0.252-0.96 0.614h-0.001c-0.002 0.004-0.003 0.008-0.005 0.012-0.010 0.022-0.019 0.045-0.027 0.068-0.004 0.011-0.009 0.022-0.012 0.033-0.008 0.024-0.014 0.048-0.020 0.073-0.003 0.011-0.006 0.023-0.009 0.034-0.006 0.026-0.009 0.052-0.013 0.079-0.002 0.011-0.004 0.021-0.005 0.032-0.004 0.037-0.006 0.075-0.006 0.113 0 0.584 0.474 1.058 1.058 1.058s1.058-0.474 1.058-1.058c0-0.038-0.002-0.076-0.006-0.113-0.001-0.011-0.003-0.021-0.005-0.032-0.004-0.026-0.007-0.053-0.013-0.079-0.003-0.012-0.006-0.023-0.009-0.034-0.006-0.025-0.012-0.049-0.020-0.073-0.004-0.011-0.008-0.022-0.012-0.033-0.009-0.023-0.017-0.046-0.027-0.068-0.002-0.004-0.003-0.008-0.005-0.012h-0.001c-0.168-0.362-0.534-0.614-0.96-0.614zM4.911 0.93c0-0.151-0.122-0.273-0.273-0.273h-0.546c-0.151 0-0.273 0.122-0.273 0.273v0.546c0 0.151 0.122 0.273 0.273 0.273h0.546c0.151 0 0.273-0.122 0.273-0.273v-0.546zM4.911 2.329h-0.503c0.039 0.141 0.060 0.29 0.060 0.444 0 0.924-0.749 1.672-1.673 1.672s-1.673-0.749-1.673-1.672c0-0.154 0.021-0.303 0.060-0.444h-0.503v2.287c0 0.151 0.122 0.273 0.273 0.273h3.686c0.151 0 0.273-0.122 0.273-0.273v-2.287z"></path>
</symbol>
<symbol id="printerest" viewBox="0 0 6 6  ">
<title>printerest</title>
<path d="M1.931 3.596c-0.045 0.178-0.090 0.364-0.136 0.546-0.046 0.18-0.086 0.362-0.153 0.527-0.111 0.273-0.251 0.537-0.436 0.751-0.123 0.142-0.097 0.086-0.134 0.078-0.028-0.006-0.030-0.034-0.036-0.074-0.030-0.217-0.010-0.468 0.002-0.712 0.013-0.278 0.071-0.509 0.126-0.74 0.103-0.44 0.202-0.872 0.306-1.315 0.007-0.029 0.026-0.078 0.019-0.095-0.047-0.123-0.078-0.234-0.092-0.363-0.016-0.148-0.004-0.287 0.030-0.414 0.059-0.226 0.195-0.426 0.404-0.499 0.133-0.046 0.281-0.025 0.37 0.028 0.092 0.055 0.156 0.142 0.185 0.266 0.032 0.131 0.008 0.288-0.017 0.403-0.057 0.26-0.132 0.455-0.2 0.706-0.034 0.124-0.072 0.252-0.040 0.387 0.029 0.123 0.093 0.208 0.181 0.272 0.091 0.066 0.198 0.102 0.347 0.097 0.262-0.009 0.444-0.177 0.566-0.335 0.195-0.253 0.313-0.594 0.357-1 0.014-0.131 0.025-0.281 0.015-0.43-0.019-0.274-0.104-0.494-0.24-0.665-0.129-0.163-0.313-0.292-0.536-0.365-0.221-0.072-0.527-0.096-0.799-0.050-0.494 0.085-0.843 0.366-1.049 0.754-0.108 0.203-0.179 0.437-0.179 0.727 0 0.224 0.055 0.398 0.145 0.533 0.028 0.043 0.070 0.078 0.098 0.127 0.039 0.070-0.006 0.173-0.025 0.248-0.023 0.091-0.026 0.216-0.132 0.218-0.044 0.001-0.099-0.031-0.136-0.052-0.278-0.154-0.447-0.434-0.517-0.797-0.042-0.221-0.042-0.478 0-0.691 0.041-0.206 0.116-0.396 0.2-0.551 0.174-0.321 0.428-0.577 0.738-0.76 0.238-0.141 0.507-0.24 0.834-0.287 0.108-0.016 0.221-0.022 0.342-0.028 0.356-0.017 0.679 0.064 0.923 0.173 0.257 0.115 0.462 0.268 0.636 0.458 0.179 0.195 0.309 0.422 0.391 0.706 0.043 0.148 0.085 0.305 0.085 0.488s-0.039 0.344-0.066 0.505c-0.101 0.603-0.388 1.097-0.819 1.378-0.104 0.068-0.231 0.131-0.374 0.173-0.142 0.041-0.305 0.073-0.478 0.060-0.169-0.012-0.307-0.057-0.423-0.123s-0.212-0.145-0.281-0.265z"></path>
</symbol>
<symbol id="twitter" viewBox="0 0 6 6">
<title>twitter</title>
<path d="M3.736 0.128c0.434-0.008 0.665 0.15 0.886 0.351 0.187-0.016 0.431-0.121 0.574-0.194 0.046-0.025 0.093-0.051 0.139-0.076-0.082 0.221-0.193 0.394-0.364 0.526-0.038 0.029-0.076 0.068-0.123 0.087 0 0.001 0 0.002 0 0.003 0.243-0.002 0.444-0.112 0.634-0.172 0 0.001 0 0.002 0 0.003-0.1 0.159-0.236 0.32-0.38 0.436-0.058 0.046-0.117 0.093-0.175 0.139 0.003 0.258-0.004 0.503-0.052 0.72-0.28 1.258-1.021 2.111-2.195 2.477-0.422 0.131-1.103 0.185-1.585 0.065-0.239-0.059-0.456-0.127-0.659-0.215-0.113-0.049-0.217-0.103-0.317-0.164-0.033-0.020-0.066-0.040-0.098-0.060 0.109 0.003 0.236 0.033 0.358 0.013 0.11-0.018 0.218-0.013 0.32-0.035 0.253-0.056 0.478-0.129 0.672-0.243 0.094-0.055 0.237-0.119 0.304-0.199-0.126 0.002-0.24-0.027-0.333-0.060-0.362-0.128-0.573-0.363-0.711-0.717 0.11 0.012 0.426 0.041 0.5-0.022-0.138-0.008-0.271-0.088-0.366-0.147-0.292-0.182-0.529-0.488-0.528-0.959 0.038 0.018 0.077 0.036 0.115 0.054 0.073 0.031 0.148 0.047 0.235 0.066 0.037 0.008 0.111 0.029 0.153 0.013-0.002 0-0.004 0-0.006 0-0.056-0.065-0.148-0.109-0.205-0.18-0.187-0.232-0.362-0.59-0.252-1.016 0.028-0.108 0.073-0.204 0.12-0.292 0.002 0.001 0.004 0.002 0.006 0.003 0.022 0.046 0.070 0.079 0.101 0.117 0.096 0.118 0.213 0.225 0.333 0.319 0.409 0.32 0.778 0.517 1.369 0.662 0.15 0.037 0.324 0.065 0.503 0.066-0.050-0.147-0.034-0.384 0.005-0.526 0.1-0.357 0.316-0.614 0.634-0.752 0.076-0.033 0.16-0.057 0.249-0.076 0.046-0.005 0.091-0.011 0.137-0.016z"></path>
</symbol>
<symbol id="cart"  vievBox="0 0 18 15" >
<title>cart</title>
<path
 d="M17.726,3.663 L17.727,3.663 L15.252,9.163 L15.252,9.163 C15.130,9.434 14.866,9.627 14.555,9.648 L14.555,9.648 L7.427,10.123 L7.839,11.299 L15.600,11.299 C16.511,11.299 17.250,12.038 17.250,12.950 C17.250,13.861 16.511,14.600 15.600,14.600 C14.689,14.600 13.950,13.861 13.950,12.950 L6.250,12.950 C6.250,13.861 5.511,14.600 4.600,14.600 C3.689,14.600 2.950,13.861 2.950,12.950 C2.950,12.038 3.689,11.299 4.600,11.299 L6.091,11.299 L2.915,2.225 L1.025,2.225 C0.569,2.225 0.200,1.855 0.200,1.400 C0.200,0.944 0.569,0.575 1.025,0.575 L3.500,0.575 C3.860,0.575 4.163,0.807 4.276,1.128 L4.279,1.127 L4.759,2.500 L16.975,2.500 C17.431,2.500 17.800,2.869 17.800,3.325 C17.800,3.445 17.773,3.559 17.726,3.663 ZM5.337,4.150 L6.862,8.507 L13.951,8.034 L15.699,4.150 L5.337,4.150 Z"></path>
</symbol>
<symbol id="glass"  vievBox="0 0 18 18" >
<title>glass</title>
<path 
 d="M17.317,14.983 C17.615,15.281 17.800,15.694 17.800,16.150 C17.800,17.061 17.061,17.800 16.150,17.800 C15.694,17.800 15.282,17.615 14.983,17.316 L14.983,17.316 L10.147,12.481 C9.165,13.061 8.023,13.400 6.800,13.400 C3.155,13.400 0.200,10.445 0.200,6.800 C0.200,3.155 3.155,0.200 6.800,0.200 C10.445,0.200 13.400,3.155 13.400,6.800 C13.400,8.023 13.061,9.165 12.481,10.147 L17.317,14.983 L17.317,14.983 ZM6.800,1.849 C4.066,1.849 1.850,4.066 1.850,6.800 C1.850,9.534 4.066,11.750 6.800,11.750 C9.534,11.750 11.750,9.534 11.750,6.800 C11.750,4.066 9.534,1.849 6.800,1.849 Z"></path>
</symbol>
</defs>
</svg>